<mxfile host="app.diagrams.net" agent="Mozilla/5.0 (Windows NT 10.0; Win64; x64) AppleWebKit/537.36 (KHTML, like Gecko) Chrome/132.0.0.0 Safari/537.36 OPR/117.0.0.0" version="26.2.13">
  <diagram id="C5RBs43oDa-KdzZeNtuy" name="Page-1">
    <mxGraphModel dx="1518" dy="1016" grid="1" gridSize="10" guides="1" tooltips="1" connect="1" arrows="1" fold="1" page="1" pageScale="1" pageWidth="827" pageHeight="1169" math="0" shadow="0">
      <root>
        <mxCell id="WIyWlLk6GJQsqaUBKTNV-0" />
        <mxCell id="WIyWlLk6GJQsqaUBKTNV-1" parent="WIyWlLk6GJQsqaUBKTNV-0" />
        <mxCell id="Wnr_2Dp8ofC-pxw3sp5O-1" value="" style="edgeStyle=none;curved=1;rounded=0;orthogonalLoop=1;jettySize=auto;html=1;fontSize=12;startSize=8;endSize=8;" edge="1" parent="WIyWlLk6GJQsqaUBKTNV-1" source="WIyWlLk6GJQsqaUBKTNV-3" target="Wnr_2Dp8ofC-pxw3sp5O-0">
          <mxGeometry relative="1" as="geometry" />
        </mxCell>
        <mxCell id="WIyWlLk6GJQsqaUBKTNV-3" value="Initialise list with alphabet characters" style="rounded=1;whiteSpace=wrap;html=1;fontSize=12;glass=0;strokeWidth=1;shadow=0;" parent="WIyWlLk6GJQsqaUBKTNV-1" vertex="1">
          <mxGeometry x="160" y="80" width="120" height="40" as="geometry" />
        </mxCell>
        <mxCell id="Wnr_2Dp8ofC-pxw3sp5O-3" value="" style="edgeStyle=none;curved=1;rounded=0;orthogonalLoop=1;jettySize=auto;html=1;fontSize=12;startSize=8;endSize=8;" edge="1" parent="WIyWlLk6GJQsqaUBKTNV-1" source="Wnr_2Dp8ofC-pxw3sp5O-0" target="Wnr_2Dp8ofC-pxw3sp5O-2">
          <mxGeometry relative="1" as="geometry" />
        </mxCell>
        <mxCell id="Wnr_2Dp8ofC-pxw3sp5O-0" value="Initialize original_text" style="whiteSpace=wrap;html=1;rounded=1;glass=0;strokeWidth=1;shadow=0;" vertex="1" parent="WIyWlLk6GJQsqaUBKTNV-1">
          <mxGeometry x="160" y="160" width="120" height="60" as="geometry" />
        </mxCell>
        <mxCell id="Wnr_2Dp8ofC-pxw3sp5O-6" value="" style="edgeStyle=none;curved=1;rounded=0;orthogonalLoop=1;jettySize=auto;html=1;fontSize=12;startSize=8;endSize=8;" edge="1" parent="WIyWlLk6GJQsqaUBKTNV-1" source="Wnr_2Dp8ofC-pxw3sp5O-2" target="Wnr_2Dp8ofC-pxw3sp5O-5">
          <mxGeometry relative="1" as="geometry" />
        </mxCell>
        <mxCell id="Wnr_2Dp8ofC-pxw3sp5O-2" value="Ask if the user wants to encode or decode" style="whiteSpace=wrap;html=1;rounded=1;glass=0;strokeWidth=1;shadow=0;" vertex="1" parent="WIyWlLk6GJQsqaUBKTNV-1">
          <mxGeometry x="160" y="260" width="120" height="60" as="geometry" />
        </mxCell>
        <mxCell id="Wnr_2Dp8ofC-pxw3sp5O-4" value="Caesar Cypher" style="text;html=1;align=center;verticalAlign=middle;resizable=0;points=[];autosize=1;strokeColor=none;fillColor=none;fontSize=25;" vertex="1" parent="WIyWlLk6GJQsqaUBKTNV-1">
          <mxGeometry x="125" y="10" width="190" height="40" as="geometry" />
        </mxCell>
        <mxCell id="Wnr_2Dp8ofC-pxw3sp5O-8" value="" style="edgeStyle=none;curved=1;rounded=0;orthogonalLoop=1;jettySize=auto;html=1;fontSize=12;startSize=8;endSize=8;" edge="1" parent="WIyWlLk6GJQsqaUBKTNV-1" source="Wnr_2Dp8ofC-pxw3sp5O-5" target="Wnr_2Dp8ofC-pxw3sp5O-7">
          <mxGeometry relative="1" as="geometry" />
        </mxCell>
        <mxCell id="Wnr_2Dp8ofC-pxw3sp5O-5" value="Ask user for message" style="whiteSpace=wrap;html=1;rounded=1;glass=0;strokeWidth=1;shadow=0;" vertex="1" parent="WIyWlLk6GJQsqaUBKTNV-1">
          <mxGeometry x="160" y="360" width="120" height="60" as="geometry" />
        </mxCell>
        <mxCell id="Wnr_2Dp8ofC-pxw3sp5O-10" value="" style="edgeStyle=none;curved=1;rounded=0;orthogonalLoop=1;jettySize=auto;html=1;fontSize=12;startSize=8;endSize=8;" edge="1" parent="WIyWlLk6GJQsqaUBKTNV-1" source="Wnr_2Dp8ofC-pxw3sp5O-7" target="Wnr_2Dp8ofC-pxw3sp5O-9">
          <mxGeometry relative="1" as="geometry" />
        </mxCell>
        <mxCell id="Wnr_2Dp8ofC-pxw3sp5O-7" value="Ask user for shift number" style="whiteSpace=wrap;html=1;rounded=1;glass=0;strokeWidth=1;shadow=0;" vertex="1" parent="WIyWlLk6GJQsqaUBKTNV-1">
          <mxGeometry x="160" y="460" width="120" height="60" as="geometry" />
        </mxCell>
        <mxCell id="Wnr_2Dp8ofC-pxw3sp5O-12" value="YES" style="edgeStyle=none;curved=1;rounded=0;orthogonalLoop=1;jettySize=auto;html=1;fontSize=12;startSize=8;endSize=8;" edge="1" parent="WIyWlLk6GJQsqaUBKTNV-1" source="Wnr_2Dp8ofC-pxw3sp5O-9" target="Wnr_2Dp8ofC-pxw3sp5O-11">
          <mxGeometry relative="1" as="geometry" />
        </mxCell>
        <mxCell id="Wnr_2Dp8ofC-pxw3sp5O-14" value="NO" style="edgeStyle=none;curved=1;rounded=0;orthogonalLoop=1;jettySize=auto;html=1;fontSize=12;startSize=8;endSize=8;" edge="1" parent="WIyWlLk6GJQsqaUBKTNV-1" source="Wnr_2Dp8ofC-pxw3sp5O-9" target="Wnr_2Dp8ofC-pxw3sp5O-13">
          <mxGeometry relative="1" as="geometry" />
        </mxCell>
        <mxCell id="Wnr_2Dp8ofC-pxw3sp5O-9" value="Is the character a letter?" style="rhombus;whiteSpace=wrap;html=1;rounded=1;glass=0;strokeWidth=1;shadow=0;" vertex="1" parent="WIyWlLk6GJQsqaUBKTNV-1">
          <mxGeometry x="84.69" y="585" width="270.62" height="170" as="geometry" />
        </mxCell>
        <mxCell id="Wnr_2Dp8ofC-pxw3sp5O-16" value="" style="edgeStyle=none;curved=1;rounded=0;orthogonalLoop=1;jettySize=auto;html=1;fontSize=12;startSize=8;endSize=8;" edge="1" parent="WIyWlLk6GJQsqaUBKTNV-1" source="Wnr_2Dp8ofC-pxw3sp5O-11" target="Wnr_2Dp8ofC-pxw3sp5O-15">
          <mxGeometry relative="1" as="geometry" />
        </mxCell>
        <mxCell id="Wnr_2Dp8ofC-pxw3sp5O-11" value="Shift Letter by shift number" style="whiteSpace=wrap;html=1;rounded=1;glass=0;strokeWidth=1;shadow=0;" vertex="1" parent="WIyWlLk6GJQsqaUBKTNV-1">
          <mxGeometry x="550.62" y="640" width="120" height="60" as="geometry" />
        </mxCell>
        <mxCell id="Wnr_2Dp8ofC-pxw3sp5O-13" value="Leave Character as is" style="whiteSpace=wrap;html=1;rounded=1;glass=0;strokeWidth=1;shadow=0;" vertex="1" parent="WIyWlLk6GJQsqaUBKTNV-1">
          <mxGeometry x="-230.62" y="640" width="120" height="60" as="geometry" />
        </mxCell>
        <mxCell id="Wnr_2Dp8ofC-pxw3sp5O-18" value="" style="edgeStyle=none;curved=1;rounded=0;orthogonalLoop=1;jettySize=auto;html=1;fontSize=12;startSize=8;endSize=8;" edge="1" parent="WIyWlLk6GJQsqaUBKTNV-1" source="Wnr_2Dp8ofC-pxw3sp5O-15" target="Wnr_2Dp8ofC-pxw3sp5O-17">
          <mxGeometry relative="1" as="geometry" />
        </mxCell>
        <mxCell id="Wnr_2Dp8ofC-pxw3sp5O-15" value="Combine Shifted Characters into Output String" style="whiteSpace=wrap;html=1;rounded=1;glass=0;strokeWidth=1;shadow=0;" vertex="1" parent="WIyWlLk6GJQsqaUBKTNV-1">
          <mxGeometry x="550.62" y="820" width="120" height="60" as="geometry" />
        </mxCell>
        <mxCell id="Wnr_2Dp8ofC-pxw3sp5O-17" value="Deliver Encrypted or Decrypted Text" style="whiteSpace=wrap;html=1;rounded=1;glass=0;strokeWidth=1;shadow=0;" vertex="1" parent="WIyWlLk6GJQsqaUBKTNV-1">
          <mxGeometry x="550.62" y="1000" width="120" height="60" as="geometry" />
        </mxCell>
      </root>
    </mxGraphModel>
  </diagram>
</mxfile>
